grf
version=1
nRows=14
nColumns=37
inDegrees=no
endheader
time	ground_force_1_vx	ground_force_1_vy	ground_force_1_vz	ground_force_1_px	ground_force_1_py	ground_force_1_pz	ground_moment_1_mx	ground_moment_1_my	ground_moment_1_mz	ground_force_2_vx	ground_force_2_vy	ground_force_2_vz	ground_force_2_px	ground_force_2_py	ground_force_2_pz	ground_moment_2_mx	ground_moment_2_my	ground_moment_2_mz	ground_force_3_vx	ground_force_3_vy	ground_force_3_vz	ground_force_3_px	ground_force_3_py	ground_force_3_pz	ground_moment_3_mx	ground_moment_3_my	ground_moment_3_mz	ground_force_4_vx	ground_force_4_vy	ground_force_4_vz	ground_force_4_px	ground_force_4_py	ground_force_4_pz	ground_moment_4_mx	ground_moment_4_my	ground_moment_4_mz
      4.85000000	      0.00000000	     -0.00000000	      0.00000000	      0.00000000	      0.00000000	      0.00000000	      0.00000000	      0.00000000	      0.00000000	     -9.58925152	     10.39913177	   -153.63327026	   -169.12534546	  -1072.74616343	      0.00000000	      0.00000000	      0.00000000	   1650.89619668	      6.52219028	    -30.60540638	   -636.43243408	   -284.99723022	   -796.30181015	      0.00000000	      0.00000000	     -0.00000000	  -1682.65509382	      0.00000000	     -0.00000000	      0.00000000	      0.00000000	      0.00000000	      0.00000000	      0.00000000	      0.00000000	      0.00000000
      4.86000000	      0.00000000	     -0.00000000	      0.00000000	      0.00000000	      0.00000000	      0.00000000	      0.00000000	      0.00000000	      0.00000000	    -10.57093143	     12.82009411	   -169.76725769	   -170.95015966	  -1075.02458235	      0.00000000	      0.00000000	      0.00000000	   1523.60178221	      7.00814941	    -29.76440872	   -620.72296143	   -284.84663627	   -795.75068877	      0.00000000	      0.00000000	     -0.00000000	  -1940.18654826	      0.00000000	     -0.00000000	      0.00000000	      0.00000000	      0.00000000	      0.00000000	      0.00000000	      0.00000000	      0.00000000
      4.87000000	      0.00000000	     -0.00000000	      0.00000000	      0.00000000	      0.00000000	      0.00000000	      0.00000000	      0.00000000	      0.00000000	    -10.74967957	     16.50428963	   -182.59550476	   -170.56210735	  -1074.82051311	      0.00000000	      0.00000000	     -0.00000000	   1475.69299753	      7.07997067	    -29.17475953	   -605.23937988	   -284.90538455	   -796.43864935	      0.00000000	      0.00000000	     -0.00000000	  -1796.66957947	      0.00000000	     -0.00000000	      0.00000000	      0.00000000	      0.00000000	      0.00000000	      0.00000000	      0.00000000	      0.00000000
      4.88000000	      0.00000000	     -0.00000000	      0.00000000	      0.00000000	      0.00000000	      0.00000000	      0.00000000	      0.00000000	      0.00000000	    -12.56375408	     20.75247002	   -193.30761719	   -168.14111858	  -1069.63870632	      0.00000000	      0.00000000	      0.00000000	   1487.93552444	      8.19035947	    -28.64506984	   -589.18981934	   -285.48524484	   -797.41918102	      0.00000000	      0.00000000	     -0.00000000	  -1813.06147522	      0.00000000	     -0.00000000	      0.00000000	      0.00000000	      0.00000000	      0.00000000	      0.00000000	      0.00000000	      0.00000000
      4.89000000	      0.00000000	     -0.00000000	      0.00000000	      0.00000000	      0.00000000	      0.00000000	      0.00000000	      0.00000000	      0.00000000	    -14.03723335	     25.01557159	   -208.20172119	   -170.95285410	  -1073.38088613	      0.00000000	      0.00000000	      0.00000000	   1475.99412164	      8.97439238	    -27.67377169	   -579.47668457	   -285.60423388	   -795.37355503	      0.00000000	     -0.00000000	     -0.00000000	  -1831.39437393	      0.00000000	     -0.00000000	      0.00000000	      0.00000000	      0.00000000	      0.00000000	      0.00000000	      0.00000000	      0.00000000
      4.90000000	      0.00000000	     -0.00000000	      0.00000000	      0.00000000	      0.00000000	      0.00000000	      0.00000000	      0.00000000	      0.00000000	    -14.94370461	     28.29795837	   -221.14326477	   -171.82037592	  -1074.76977798	      0.00000000	      0.00000000	      0.00000000	   1561.15381278	      8.72340818	    -27.80665665	   -568.30065918	   -285.28313181	   -795.29268981	      0.00000000	      0.00000000	     -0.00000000	  -1605.04096660	      0.00000000	     -0.00000000	      0.00000000	      0.00000000	      0.00000000	      0.00000000	      0.00000000	      0.00000000	      0.00000000
      4.91000000	      0.00000000	     -0.00000000	      0.00000000	      0.00000000	      0.00000000	      0.00000000	      0.00000000	      0.00000000	      0.00000000	    -15.46145630	     30.85439873	   -232.86666870	   -171.20448040	  -1074.46143980	      0.00000000	      0.00000000	     -0.00000000	   1526.03953912	      8.19108721	    -27.73301005	   -555.67559814	   -285.32111794	   -796.06589952	      0.00000000	      0.00000000	     -0.00000000	  -1420.33481079	      0.00000000	     -0.00000000	      0.00000000	      0.00000000	      0.00000000	      0.00000000	      0.00000000	      0.00000000	      0.00000000
      4.92000000	      0.00000000	     -0.00000000	      0.00000000	      0.00000000	      0.00000000	      0.00000000	      0.00000000	      0.00000000	      0.00000000	    -15.80567455	     32.97170639	   -245.64312744	   -173.10079344	  -1073.40986310	      0.00000000	      0.00000000	      0.00000000	   1561.65456194	      7.39293044	    -28.07139271	   -543.86041260	   -284.19756019	   -796.13767525	      0.00000000	      0.00000000	     -0.00000000	  -1557.89888209	      0.00000000	     -0.00000000	      0.00000000	      0.00000000	      0.00000000	      0.00000000	      0.00000000	      0.00000000	      0.00000000
      4.93000000	      0.00000000	     -0.00000000	      0.00000000	      0.00000000	      0.00000000	      0.00000000	      0.00000000	      0.00000000	      0.00000000	    -16.37212944	     33.74938202	   -257.36102295	   -173.79804264	  -1074.02472298	      0.00000000	      0.00000000	      0.00000000	   1676.91496748	      6.65330642	    -27.95290433	   -531.23065186	   -283.17531266	   -795.43252331	      0.00000000	      0.00000000	     -0.00000000	  -1617.64368444	      0.00000000	     -0.00000000	      0.00000000	      0.00000000	      0.00000000	      0.00000000	      0.00000000	      0.00000000	      0.00000000
      4.94000000	      0.00000000	     -0.00000000	      0.00000000	      0.00000000	      0.00000000	      0.00000000	      0.00000000	      0.00000000	      0.00000000	    -17.30683899	     34.66087341	   -271.19918823	   -175.22757753	  -1073.04297793	      0.00000000	      0.00000000	      0.00000000	   1818.22631519	      5.24915646	    -27.42519043	   -517.44274902	   -282.06160242	   -795.25238763	      0.00000000	      0.00000000	     -0.00000000	  -1466.78258506	      0.00000000	     -0.00000000	      0.00000000	      0.00000000	      0.00000000	      0.00000000	      0.00000000	      0.00000000	      0.00000000
      4.95000000	      0.00000000	     -0.00000000	      0.00000000	      0.00000000	      0.00000000	      0.00000000	      0.00000000	      0.00000000	      0.00000000	    -17.52167320	     35.18043518	   -283.76925659	   -178.26189607	  -1072.64471647	      0.00000000	      0.00000000	      0.00000000	   2105.13673709	      3.91860343	    -27.12675892	   -503.52407837	   -281.16176229	   -795.40875660	      0.00000000	      0.00000000	     -0.00000000	  -1321.22754246	      0.00000000	     -0.00000000	      0.00000000	      0.00000000	      0.00000000	      0.00000000	      0.00000000	      0.00000000	      0.00000000
      4.96000000	      0.00000000	     -0.00000000	      0.00000000	      0.00000000	      0.00000000	      0.00000000	      0.00000000	      0.00000000	      0.00000000	    -17.19202042	     35.74129486	   -297.25161743	   -178.29112430	  -1071.97694403	      0.00000000	      0.00000000	      0.00000000	   2237.35258051	      3.54842911	    -26.13182099	   -487.78054810	   -280.36081752	   -796.63609537	      0.00000000	      0.00000000	     -0.00000000	  -1403.19279087	      0.00000000	     -0.00000000	      0.00000000	      0.00000000	      0.00000000	      0.00000000	      0.00000000	      0.00000000	      0.00000000
      4.97000000	      0.00000000	     -0.00000000	      0.00000000	      0.00000000	      0.00000000	      0.00000000	      0.00000000	      0.00000000	      0.00000000	    -16.79669762	     35.83042145	   -311.25097656	   -179.10270111	  -1071.85539390	      0.00000000	      0.00000000	      0.00000000	   2387.84773422	      3.22473255	    -25.58698682	   -472.35946655	   -279.66413938	   -796.53875238	      0.00000000	      0.00000000	     -0.00000000	  -1363.79829741	      0.00000000	     -0.00000000	      0.00000000	      0.00000000	      0.00000000	      0.00000000	      0.00000000	      0.00000000	      0.00000000
      4.98000000	      0.00000000	     -0.00000000	      0.00000000	      0.00000000	      0.00000000	      0.00000000	      0.00000000	      0.00000000	      0.00000000	    -16.13867188	     36.30836105	   -325.21478271	   -179.13820325	  -1071.71603671	      0.00000000	      0.00000000	      0.00000000	   2680.40177594	      3.32941624	    -24.94812422	   -456.93759155	   -279.34769338	   -796.77079131	      0.00000000	      0.00000000	     -0.00000000	  -1456.55860323	      0.00000000	     -0.00000000	      0.00000000	      0.00000000	      0.00000000	      0.00000000	      0.00000000	      0.00000000	      0.00000000
